<svg xmlns="http://www.w3.org/2000/svg" viewBox="0 0 48 48"><title>25-online education</title><g id="_25-online_education" data-name="25-online education"><path d="M45,5H43a3,3,0,0,0-3-3H39V1a1,1,0,0,0-1-1H10A1,1,0,0,0,9,1V2H8A3,3,0,0,0,5,5H3A3,3,0,0,0,0,8V35a3,3,0,0,0,3,3H17v4c0,.22,0,.279-.816.552A2.577,2.577,0,0,0,14,45v1H11v2H37V46H34V45a2.577,2.577,0,0,0-2.184-2.448C31,42.279,31,42.22,31,42V38H45a3,3,0,0,0,3-3V8A3,3,0,0,0,45,5ZM25,2H37V22H25ZM11,2H23V22H11ZM7,5A1,1,0,0,1,8,4H9V23a1,1,0,0,0,1,1H38a1,1,0,0,0,1-1V4h1a1,1,0,0,1,1,1V25a1,1,0,0,1-1,1H8a1,1,0,0,1-1-1ZM31.184,44.448C32,44.721,32,44.78,32,45v1H16V45c0-.22,0-.279.816-.552A3.026,3.026,0,0,0,18.792,43H24V41H19V38H29v4A2.577,2.577,0,0,0,31.184,44.448ZM46,35a1,1,0,0,1-1,1H3a1,1,0,0,1-1-1V32H46Zm0-5H2V8A1,1,0,0,1,3,7H5V25a3,3,0,0,0,3,3H40a3,3,0,0,0,3-3V7h2a1,1,0,0,1,1,1Z"/><rect x="13" y="5" width="8" height="2"/><rect x="13" y="9" width="8" height="2"/><rect x="13" y="13" width="8" height="2"/><rect x="13" y="17" width="4" height="2"/><rect x="27" y="5" width="8" height="2"/><rect x="27" y="9" width="8" height="2"/><rect x="27" y="13" width="8" height="2"/><rect x="27" y="17" width="4" height="2"/></g></svg>